<svg width="93" height="40" viewBox="0 0 93 40" fill="none" xmlns="http://www.w3.org/2000/svg">
<path d="M70.6045 0.0374402L68.7448 5.54788H53.1006L49.315 16.4869H63.9709L62.1652 22.1267H44.4969C43.3176 22.1267 42.196 21.8921 41.4702 21.1321C40.7445 20.3403 40.7121 19.6226 40.7121 18.8679C40.7121 18.1132 45.3855 3.81103 45.3855 3.81103C45.7786 2.7026 46.5808 1.14033 47.6391 0.475278C48.5128 -0.0585033 49.8947 -0.0174942 51.141 0.0194917C51.4475 0.0285876 51.7458 0.0374402 52.0264 0.0374402H70.6045Z" fill="white"/>
<path d="M12.875 5.92792L0 40L9.85557 39.9171L13.6465 29.6523H27.7694L24.1182 39.9171H33.1604L36.3898 30.2261L88.5152 29.7998L90.4509 23.5368L27.7694 23.3894V23.4153H14.7567L15.194 23.375L20.4695 9.60797L33.7155 9.60798L30.3248 22.1267H37.906L44.7829 0.0374347H17.4368C15.2715 0.0374347 13.694 3.83161 12.875 5.92792Z" fill="white"/>
<path d="M85.4254 0.037438H93L88.5152 18.8055C87.462 21.0196 85.6336 22.1267 83.03 22.1267H63.4148L65.2639 16.4759H80.5386L85.4254 0.037438Z" fill="white"/>
<path fill-rule="evenodd" clip-rule="evenodd" d="M53.7524 37.5028C53.9842 37.6582 54.2518 37.7359 54.5551 37.7359C54.9675 37.7359 55.3356 37.6225 55.6594 37.3958C55.9831 37.1648 56.2354 36.8457 56.416 36.4384C56.5966 36.027 56.687 35.563 56.687 35.0466C56.687 34.6855 56.6239 34.3664 56.4978 34.0893C56.3717 33.808 56.1928 33.5917 55.961 33.4406C55.7292 33.2852 55.46 33.2075 55.1532 33.2075C54.7442 33.2075 54.3779 33.3209 54.0541 33.5476C53.7337 33.7744 53.4832 34.0914 53.3026 34.4986C53.1219 34.9017 53.0316 35.3615 53.0316 35.8779C53.0316 36.2432 53.0947 36.5665 53.2208 36.8478C53.3469 37.1291 53.5241 37.3475 53.7524 37.5028ZM55.281 36.5266C55.1106 36.6694 54.913 36.7408 54.688 36.7408C54.4392 36.7408 54.2466 36.6547 54.1103 36.4825C53.974 36.3062 53.9058 36.0669 53.9058 35.7646C53.9058 35.479 53.9518 35.2187 54.0438 34.9836C54.1393 34.7443 54.2722 34.5532 54.4426 34.4105C54.6164 34.2677 54.8158 34.1963 55.0408 34.1963C55.2862 34.1963 55.477 34.2824 55.6133 34.4546C55.7497 34.6267 55.8178 34.8639 55.8178 35.1662C55.8178 35.4476 55.7701 35.71 55.6747 35.9535C55.5827 36.1928 55.4515 36.3839 55.281 36.5266Z" fill="white"/>
<path fill-rule="evenodd" clip-rule="evenodd" d="M37.6321 36.9108H38.9715L39.0738 37.6918H39.9991L39.3345 33.2705H38.3223L36.3898 37.6918H37.3049L37.6321 36.9108ZM38.6597 34.4546L38.8693 36.0921H37.9746L38.6597 34.4546Z" fill="white"/>
<path d="M43.4515 35.9094L43.8298 33.2705H42.9556L42.5824 35.9094C42.562 36.0606 42.5518 36.2033 42.5518 36.3377C42.5518 36.7911 42.6659 37.1375 42.8943 37.3769C43.126 37.6162 43.4294 37.7359 43.8043 37.7359C44.094 37.7359 44.3615 37.6687 44.6069 37.5343C44.8557 37.4 45.0653 37.1963 45.2357 36.9234C45.4096 36.6463 45.5255 36.3083 45.5834 35.9094L45.9617 33.2705H45.0875L44.7092 35.9094C44.6717 36.1739 44.5882 36.3776 44.4587 36.5203C44.3292 36.6631 44.1622 36.7345 43.9577 36.7345C43.7838 36.7345 43.6526 36.6841 43.564 36.5833C43.4754 36.4783 43.4311 36.3293 43.4311 36.1361C43.4311 36.0942 43.4379 36.0186 43.4515 35.9094Z" fill="white"/>
<path d="M51.1 33.2705L50.9825 34.1208H50.0264L49.5152 37.6918H48.641L49.1522 34.1208H48.2013L48.324 33.2705H51.1Z" fill="white"/>
<path fill-rule="evenodd" clip-rule="evenodd" d="M64.0364 33.2705C64.4079 33.2705 64.6908 33.3755 64.885 33.5854C65.0793 33.7912 65.1764 34.0599 65.1764 34.3916C65.1764 34.4882 65.1696 34.5784 65.156 34.6624C65.1151 34.9563 65.0111 35.2187 64.8441 35.4497C64.6771 35.6806 64.4539 35.8443 64.1744 35.9409L64.7521 37.6918H63.7654L63.2593 36.0228H63.0497L62.8094 37.6918H61.9352L62.5691 33.2705H64.0364ZM64.2613 34.7065C64.2682 34.6393 64.2716 34.5952 64.2716 34.5742C64.2716 34.4399 64.2358 34.337 64.1642 34.2656C64.096 34.19 63.9938 34.1523 63.8574 34.1523H63.3155L63.1571 35.2607H63.699C63.8592 35.2607 63.9853 35.2124 64.0773 35.1159C64.1727 35.0193 64.2341 34.8828 64.2613 34.7065Z" fill="white"/>
<path d="M68.4706 35.0403L68.5984 34.1208H69.9225L70.0452 33.2705H67.8469L67.2129 37.6918H69.4112L69.5339 36.8415H68.2098L68.353 35.8527H69.5237L69.6413 35.0403H68.4706Z" fill="white"/>
<path fill-rule="evenodd" clip-rule="evenodd" d="M75.0861 34.6939C75.052 34.95 74.9719 35.1851 74.8458 35.3993C74.7197 35.6092 74.5476 35.7793 74.3294 35.9094C74.1147 36.0396 73.8608 36.1047 73.5677 36.1047H73.0258L72.7957 37.6918H71.9215L72.5554 33.2705H73.9716C74.3465 33.2705 74.6294 33.3734 74.8202 33.5791C75.0111 33.7807 75.1065 34.0557 75.1065 34.4042C75.1065 34.5091 75.0997 34.6057 75.0861 34.6939ZM73.6188 35.2607C73.946 35.2607 74.1386 35.0718 74.1965 34.6939C74.2033 34.6267 74.2067 34.5784 74.2067 34.549C74.2067 34.4147 74.1709 34.3118 74.0994 34.2404C74.0312 34.1649 73.9256 34.1271 73.7824 34.1271H73.307L73.1485 35.2607H73.6188Z" fill="white"/>
<path fill-rule="evenodd" clip-rule="evenodd" d="M78.0616 36.9108H79.401L79.5033 37.6918H80.4286L79.764 33.2705H78.7518L76.8193 37.6918H77.7344L78.0616 36.9108ZM79.0892 34.4546L79.2988 36.0921H78.4041L79.0892 34.4546Z" fill="white"/>
<path d="M84.2747 33.2705L83.6407 37.6918H82.7665L83.4005 33.2705H84.2747Z" fill="white"/>
<path fill-rule="evenodd" clip-rule="evenodd" d="M89.1668 33.5854C88.9725 33.3755 88.6897 33.2705 88.3182 33.2705H86.8509L86.217 37.6918H87.0912L87.3315 36.0228H87.5411L88.0472 37.6918H89.0339L88.4562 35.9409C88.7357 35.8443 88.9589 35.6806 89.1259 35.4497C89.2929 35.2187 89.3969 34.9563 89.4378 34.6624C89.4514 34.5784 89.4582 34.4882 89.4582 34.3916C89.4582 34.0599 89.3611 33.7912 89.1668 33.5854ZM88.5533 34.5742C88.5533 34.5952 88.5499 34.6393 88.5431 34.7065C88.5158 34.8828 88.4545 35.0193 88.3591 35.1159C88.267 35.2124 88.1409 35.2607 87.9807 35.2607H87.4388L87.5973 34.1523H88.1392C88.2756 34.1523 88.3778 34.19 88.446 34.2656C88.5175 34.337 88.5533 34.4399 88.5533 34.5742Z" fill="white"/>
</svg>
