<svg width="93" height="40" viewBox="0 0 391 169" fill="none" xmlns="http://www.w3.org/2000/svg">
<path d="M296.679 0.157323L288.865 23.3121H223.128L207.221 69.2777H268.805L261.217 92.9761H186.975C182.02 92.9761 177.307 91.9904 174.257 88.7966C171.208 85.4698 171.072 82.454 171.072 79.2827C171.072 76.1114 190.709 16.0139 190.709 16.0139C192.361 11.3563 195.732 4.79166 200.179 1.99711C203.85 -0.24583 209.657 -0.0735105 214.894 0.0819038C216.182 0.120125 217.435 0.157323 218.614 0.157323H296.679Z" fill="#111111"/>
<path d="M54.1007 24.909L0 168.079L41.4129 167.731L57.3422 124.598H116.686L101.344 167.731H139.339L152.909 127.01L371.939 125.218L380.073 98.9014L116.686 98.2817V98.3905H62.0072L63.8449 98.2214L86.0127 40.3725L141.672 40.3725L127.424 92.9761H159.28L188.177 0.1573H73.269C64.1704 0.1573 57.5418 16.1004 54.1007 24.909Z" fill="#111111"/>
<path d="M358.956 0.157314H390.784L371.939 79.0202C367.514 88.3241 359.831 92.9761 348.89 92.9761H266.468L274.238 69.2316H338.422L358.956 0.157314Z" fill="#111111"/>
<path fill-rule="evenodd" clip-rule="evenodd" d="M225.867 157.586C226.841 158.239 227.965 158.565 229.24 158.565C230.972 158.565 232.519 158.089 233.88 157.136C235.24 156.166 236.3 154.825 237.059 153.114C237.818 151.385 238.198 149.435 238.198 147.265C238.198 145.748 237.933 144.407 237.403 143.243C236.873 142.06 236.121 141.152 235.147 140.517C234.173 139.864 233.042 139.538 231.753 139.538C230.034 139.538 228.495 140.014 227.134 140.967C225.788 141.919 224.735 143.251 223.976 144.963C223.217 146.656 222.838 148.588 222.838 150.758C222.838 152.293 223.103 153.652 223.633 154.834C224.163 156.016 224.907 156.933 225.867 157.586ZM232.29 153.484C231.574 154.084 230.743 154.384 229.798 154.384C228.753 154.384 227.943 154.022 227.371 153.299C226.798 152.558 226.511 151.552 226.511 150.282C226.511 149.082 226.705 147.988 227.091 147C227.492 145.995 228.051 145.192 228.767 144.592C229.497 143.992 230.335 143.692 231.28 143.692C232.311 143.692 233.113 144.054 233.686 144.777C234.259 145.501 234.546 146.498 234.546 147.768C234.546 148.95 234.345 150.053 233.944 151.076C233.557 152.082 233.006 152.884 232.29 153.484Z" fill="#111111"/>
<path fill-rule="evenodd" clip-rule="evenodd" d="M158.129 155.099H163.758L164.187 158.38H168.076L165.283 139.802H161.029L152.909 158.38H156.755L158.129 155.099ZM162.447 144.777L163.328 151.658H159.569L162.447 144.777Z" fill="#111111"/>
<path d="M182.583 150.891L184.172 139.802H180.499L178.931 150.891C178.845 151.526 178.802 152.126 178.802 152.69C178.802 154.596 179.281 156.051 180.241 157.057C181.215 158.063 182.489 158.565 184.065 158.565C185.282 158.565 186.406 158.283 187.438 157.719C188.483 157.154 189.364 156.298 190.08 155.151C190.81 153.987 191.297 152.567 191.541 150.891L193.13 139.802H189.457L187.867 150.891C187.71 152.002 187.359 152.858 186.815 153.458C186.27 154.058 185.569 154.358 184.709 154.358C183.979 154.358 183.428 154.146 183.055 153.722C182.683 153.281 182.497 152.655 182.497 151.843C182.497 151.667 182.525 151.349 182.583 150.891Z" fill="#111111"/>
<path d="M214.721 139.802L214.227 143.375H210.21L208.062 158.38H204.389L206.537 143.375H202.541L203.057 139.802H214.721Z" fill="#111111"/>
<path fill-rule="evenodd" clip-rule="evenodd" d="M269.08 139.802C270.641 139.802 271.829 140.243 272.646 141.125C273.462 141.99 273.87 143.119 273.87 144.513C273.87 144.919 273.842 145.298 273.784 145.651C273.612 146.886 273.176 147.988 272.474 148.959C271.772 149.929 270.834 150.617 269.66 151.023L272.087 158.38H267.941L265.814 151.367H264.934L263.924 158.38H260.251L262.914 139.802H269.08ZM270.025 145.836C270.054 145.554 270.068 145.368 270.068 145.28C270.068 144.716 269.918 144.283 269.617 143.984C269.33 143.666 268.901 143.507 268.328 143.507H266.051L265.385 148.165H267.662C268.335 148.165 268.865 147.962 269.252 147.556C269.653 147.15 269.91 146.577 270.025 145.836Z" fill="#111111"/>
<path d="M287.712 147.239L288.249 143.375H293.813L294.329 139.802H285.091L282.428 158.38H291.665L292.18 154.807H286.617L287.218 150.653H292.137L292.632 147.239H287.712Z" fill="#111111"/>
<path fill-rule="evenodd" clip-rule="evenodd" d="M315.51 145.783C315.367 146.859 315.031 147.847 314.501 148.747C313.971 149.629 313.248 150.344 312.331 150.891C311.429 151.438 310.362 151.711 309.13 151.711H306.853L305.886 158.38H302.213L304.877 139.802H310.827C312.403 139.802 313.591 140.234 314.393 141.099C315.195 141.946 315.596 143.101 315.596 144.566C315.596 145.007 315.568 145.413 315.51 145.783ZM309.345 148.165C310.72 148.165 311.529 147.371 311.772 145.783C311.801 145.501 311.815 145.298 311.815 145.174C311.815 144.61 311.665 144.178 311.364 143.878C311.078 143.56 310.634 143.401 310.032 143.401H308.035L307.369 148.165H309.345Z" fill="#111111"/>
<path fill-rule="evenodd" clip-rule="evenodd" d="M328.013 155.099H333.642L334.071 158.38H337.96L335.167 139.802H330.913L322.793 158.38H326.639L328.013 155.099ZM332.331 144.777L333.212 151.658H329.453L332.331 144.777Z" fill="#111111"/>
<path d="M354.121 139.802L351.457 158.38H347.783L350.447 139.802H354.121Z" fill="#111111"/>
<path fill-rule="evenodd" clip-rule="evenodd" d="M374.677 141.125C373.861 140.243 372.672 139.802 371.111 139.802H364.946L362.282 158.38H365.956L366.965 151.367H367.846L369.973 158.38H374.119L371.691 151.023C372.866 150.617 373.804 149.929 374.506 148.959C375.207 147.988 375.644 146.886 375.816 145.651C375.873 145.298 375.902 144.919 375.902 144.513C375.902 143.119 375.494 141.99 374.677 141.125ZM372.1 145.28C372.1 145.368 372.085 145.554 372.057 145.836C371.942 146.577 371.684 147.15 371.283 147.556C370.897 147.962 370.367 148.165 369.694 148.165H367.416L368.082 143.507H370.359C370.932 143.507 371.362 143.666 371.648 143.984C371.949 144.283 372.1 144.716 372.1 145.28Z" fill="#111111"/>
</svg>
